<svg xmlns="http://www.w3.org/2000/svg" viewBox="0 0 512 512" width="512" height="512">
  <defs>
    <style>
      .coffee-stroke { fill: none; stroke: #2c3e50; stroke-width: 4; stroke-linecap: round; stroke-linejoin: round; }
      .cup-fill { fill: #ecf0f1; }
      .coffee-fill { fill: #8b4513; }
      .foam-fill { fill: #f8f9fa; }
      .saucer-fill { fill: #bdc3c7; }
      .steam-stroke { fill: none; stroke: #95a5a6; stroke-width: 2; stroke-linecap: round; }
    </style>
  </defs>
  
  <!-- Saucer -->
  <ellipse cx="256" cy="380" rx="80" ry="12" class="saucer-fill coffee-stroke"/>
  
  <!-- Cup body -->
  <path d="M200 380 Q200 320 200 280 Q200 260 220 260 L292 260 Q312 260 312 280 L312 320 Q312 380 312 380 Z" class="cup-fill coffee-stroke"/>
  
  <!-- Coffee inside -->
  <path d="M210 370 Q210 330 210 290 Q210 275 225 275 L287 275 Q302 275 302 290 L302 330 Q302 370 302 370 Z" class="coffee-fill"/>
  
  <!-- Foam on top -->
  <ellipse cx="256" cy="275" rx="46" ry="8" class="foam-fill coffee-stroke"/>
  
  <!-- Cup handle -->
  <path d="M312 300 Q340 300 340 330 Q340 360 312 360" class="coffee-stroke"/>
  
  <!-- Steam -->
  <path d="M230 240 Q235 220 230 200 Q225 180 230 160" class="steam-stroke"/>
  <path d="M256 240 Q261 220 256 200 Q251 180 256 160" class="steam-stroke"/>
  <path d="M282 240 Q287 220 282 200 Q277 180 282 160" class="steam-stroke"/>
  
  <!-- Coffee beans decoration -->
  <g fill="#8b4513" stroke="#654321" stroke-width="1">
    <ellipse cx="150" cy="200" rx="8" ry="12" transform="rotate(15 150 200)"/>
    <line x1="150" y1="190" x2="150" y2="210" stroke="#654321" stroke-width="1"/>
    
    <ellipse cx="370" cy="250" rx="8" ry="12" transform="rotate(-20 370 250)"/>
    <line x1="370" y1="240" x2="370" y2="260" stroke="#654321" stroke-width="1"/>
    
    <ellipse cx="120" cy="350" rx="8" ry="12" transform="rotate(45 120 350)"/>
    <line x1="120" y1="340" x2="120" y2="360" stroke="#654321" stroke-width="1"/>
    
    <ellipse cx="400" cy="180" rx="8" ry="12" transform="rotate(-10 400 180)"/>
    <line x1="400" y1="170" x2="400" y2="190" stroke="#654321" stroke-width="1"/>
  </g>
  
  <!-- Heart in foam (latte art) -->
  <path d="M256 280 Q248 275 240 280 Q235 285 240 290 Q248 295 256 300 Q264 295 272 290 Q277 285 272 280 Q264 275 256 280 Z" fill="#e74c3c"/>
</svg>