<svg version="1.1" xmlns="http://www.w3.org/2000/svg" viewBox="0 0 93.55851966194132 111.38269815055514" width="93.55851966194132" height="111.38269815055514"><!-- svg-source:excalidraw --><metadata></metadata><defs><style class="style-fonts">
      </style></defs><rect x="0" y="0" width="93.55851966194132" height="111.38269815055514" fill="transparent"></rect><g stroke-linecap="round" transform="translate(25.097239715467367 10) rotate(0 20.157248140934826 20.157248140934854)"><path d="M20.84 -0.05 C25.02 -0.08, 30.58 2.46, 33.83 5.31 C37.07 8.16, 39.7 12.87, 40.31 17.05 C40.91 21.22, 39.67 26.59, 37.45 30.37 C35.22 34.14, 31.07 38.33, 26.96 39.68 C22.85 41.04, 16.85 40.16, 12.8 38.5 C8.75 36.84, 4.76 33.39, 2.67 29.71 C0.58 26.03, -0.61 20.64, 0.26 16.41 C1.14 12.18, 4.48 7.1, 7.91 4.32 C11.33 1.54, 18.55 0.35, 20.81 -0.27 C23.07 -0.88, 21.43 0.28, 21.46 0.65 M22.51 -0.11 C26.6 0.17, 31.15 2.98, 34.14 6.11 C37.13 9.25, 40.21 14.28, 40.45 18.67 C40.7 23.06, 38.11 28.98, 35.61 32.46 C33.1 35.94, 29.58 38.54, 25.41 39.56 C21.25 40.58, 14.48 40.41, 10.6 38.59 C6.72 36.76, 3.76 32.75, 2.14 28.61 C0.53 24.47, -0.22 17.9, 0.93 13.75 C2.09 9.61, 5.42 6.14, 9.07 3.76 C12.71 1.37, 20.66 -0.05, 22.83 -0.55 C24.99 -1.06, 22.19 0.27, 22.04 0.72" stroke="#1e1e1e" stroke-width="2" fill="none"></path></g><g stroke-linecap="round"><g transform="translate(45.57238112942696 54.22552877653675) rotate(0 0 21.50642638824297)"><path d="M0.14 -0.47 C-4.06 6.3, -30.31 32.27, -26.18 39.61 C-22.05 46.96, 20.5 50.14, 24.94 43.62 C29.39 37.1, 4.72 7.7, 0.48 0.49 M-1.24 -1.76 C-5 5.31, -28.27 34.02, -24.04 41.25 C-19.82 48.48, 19.93 48.78, 24.1 41.6 C28.27 34.42, 4.76 4.96, 0.98 -1.81" stroke="#1e1e1e" stroke-width="2" fill="none"></path></g></g><mask></mask><g stroke-linecap="round"><g transform="translate(10.748236524686263 34.7338179839947) rotate(0 10.977935122826182 18.778071931151203)"><path d="M-0.75 -0.53 C2.87 5.55, 18.3 30.71, 22.01 36.95 M1.06 1.81 C4.5 8, 17.85 32.16, 21.1 38.16" stroke="#1e1e1e" stroke-width="2" fill="none"></path></g></g><mask></mask><g stroke-linecap="round"><g transform="translate(59.11555753272205 68.68624018574837) rotate(0 11.776612324412383 -17.574320365475472)"><path d="M0.83 -1.19 C4.37 -6.84, 18.4 -29.19, 22.36 -34.79 M-0.19 0.8 C3.6 -5.15, 20.35 -31.04, 24.44 -36.73" stroke="#1e1e1e" stroke-width="2" fill="none"></path></g></g><mask></mask></svg>