<svg version="1.1" xmlns="http://www.w3.org/2000/svg" viewBox="0 0 72.12798138498704 112.22388396645465" width="72.12798138498704" height="112.22388396645465"><!-- svg-source:excalidraw --><metadata></metadata><defs><style class="style-fonts">
      </style></defs><rect x="0" y="0" width="72.12798138498704" height="112.22388396645465" fill="transparent"></rect><g stroke-linecap="round" transform="translate(15.74581400410193 10) rotate(0 20.157248140934826 20.157248140934854)"><path d="M22.51 0.25 C26.62 0.6, 31.82 3.72, 34.73 6.77 C37.65 9.81, 39.78 14.35, 40.01 18.52 C40.23 22.69, 38.64 28.24, 36.09 31.78 C33.54 35.33, 28.8 38.74, 24.68 39.79 C20.56 40.85, 15.24 40.05, 11.38 38.1 C7.51 36.16, 3.24 32.11, 1.49 28.14 C-0.27 24.16, -0.42 18.36, 0.85 14.26 C2.11 10.15, 5.42 5.86, 9.09 3.5 C12.76 1.13, 20.41 0.51, 22.89 0.04 C25.36 -0.42, 23.89 0.41, 23.94 0.71 M19.55 0.69 C23.66 0.3, 29.37 1.83, 32.8 4.25 C36.23 6.68, 39.21 10.95, 40.14 15.23 C41.06 19.51, 40.35 26.03, 38.33 29.94 C36.31 33.86, 31.96 37.2, 28.04 38.71 C24.11 40.23, 18.98 40.38, 14.79 39.04 C10.61 37.71, 5.41 34.36, 2.95 30.7 C0.49 27.04, -0.47 21.3, 0.04 17.08 C0.54 12.87, 2.67 8.17, 5.97 5.39 C9.26 2.62, 17.53 1.29, 19.79 0.44 C22.05 -0.42, 19.65 -0.08, 19.53 0.25" stroke="#1e1e1e" stroke-width="2" fill="none"></path></g><g stroke-linecap="round"><g transform="translate(36.22095541806152 54.22552877653675) rotate(0 0 21.50642638824297)"><path d="M0.57 -0.21 C-3.6 6.38, -29.92 32.24, -25.78 39.4 C-21.65 46.56, 20.9 49.44, 25.36 42.76 C29.83 36.08, 5.43 6.55, 1.01 -0.66 M-0.6 -1.36 C-4.3 5.43, -27.66 33.37, -23.43 40.93 C-19.21 48.48, 20.54 50.75, 24.74 43.94 C28.94 37.14, 5.85 7.49, 1.79 0.09" stroke="#1e1e1e" stroke-width="2" fill="none"></path></g></g><mask></mask></svg>