<svg version="1.1" xmlns="http://www.w3.org/2000/svg" viewBox="0 0 72.03685900087453 111.75413262452798" width="72.03685900087453" height="111.75413262452798"><!-- svg-source:excalidraw --><metadata></metadata><defs><style class="style-fonts">
      </style></defs><rect x="0" y="0" width="72.03685900087453" height="111.75413262452798" fill="transparent"></rect><g stroke-linecap="round" transform="translate(15.124213200549661 10) rotate(0 20.157248140934826 20.157248140934854)"><path d="M19.31 0.46 C23.27 -0.08, 28.3 1.41, 31.68 3.86 C35.06 6.32, 38.43 11.06, 39.59 15.22 C40.75 19.37, 40.56 24.96, 38.63 28.82 C36.7 32.68, 32.1 36.61, 28.02 38.38 C23.93 40.14, 18.19 40.59, 14.11 39.39 C10.03 38.19, 5.89 34.83, 3.54 31.19 C1.19 27.54, -0.44 21.77, 0 17.51 C0.45 13.26, 2.91 8.59, 6.2 5.66 C9.48 2.73, 17.4 0.79, 19.72 -0.07 C22.04 -0.93, 20.13 0.05, 20.11 0.48 M17.87 -0.23 C21.95 -1.05, 27.52 0.78, 31.2 3.23 C34.88 5.68, 38.64 10.19, 39.95 14.45 C41.25 18.71, 40.86 24.86, 39.02 28.8 C37.19 32.74, 32.86 36.33, 28.92 38.1 C24.99 39.87, 19.64 40.49, 15.42 39.41 C11.19 38.34, 6.04 35.11, 3.57 31.65 C1.11 28.2, 0.37 22.86, 0.63 18.67 C0.89 14.48, 2.23 9.58, 5.13 6.52 C8.03 3.45, 15.92 1.31, 18 0.29 C20.08 -0.74, 17.57 0.12, 17.6 0.37" stroke="#1e1e1e" stroke-width="2" fill="none"></path></g><g stroke-linecap="round"><g transform="translate(35.59935461450925 54.22552877653675) rotate(0 0 21.50642638824297)"><path d="M0.49 -0.3 C-3.64 6.4, -28.71 32.3, -24.46 39.69 C-20.2 47.08, 22.16 50.68, 26.05 44.03 C29.94 37.38, 3.32 7.24, -1.09 -0.19 M-0.71 -1.5 C-4.98 4.87, -29.49 30.42, -25.07 37.71 C-20.65 44.99, 21.84 48.37, 25.79 42.22 C29.73 36.07, 2.62 7.92, -1.41 0.81" stroke="#1e1e1e" stroke-width="2" fill="none"></path></g></g><mask></mask><g stroke-linecap="round"><g transform="translate(45.79585198457812 21.01558649880309) rotate(0 -0.6366609490726205 10.798486153673508)" fill-rule="evenodd"><path d="M0.64 -0.74 C-0.46 1.47, -5.82 9.65, -6.89 13.2 C-7.96 16.75, -6.69 19.2, -5.78 20.55 C-4.88 21.9, -3.19 21.6, -1.45 21.28 C0.29 20.95, 3.41 19.74, 4.63 18.59 C5.85 17.44, 6.47 17.43, 5.86 14.38 C5.25 11.34, 1.84 2.9, 0.98 0.33" stroke="none" stroke-width="0" fill="#a5d8ff" fill-rule="evenodd"></path><path d="M-0.32 -0.01 C-1.39 2.02, -5.36 8.9, -6.19 12.08 C-7.02 15.25, -6.23 17.49, -5.32 19.04 C-4.41 20.58, -2.22 21.36, -0.74 21.36 C0.74 21.35, 2.57 20.35, 3.54 19 C4.5 17.65, 5.66 16.45, 5.06 13.25 C4.46 10.06, 0.78 2.05, -0.06 -0.16 M0.52 -0.49 C-0.64 1.63, -5.57 9.39, -6.56 12.72 C-7.55 16.04, -6.37 17.98, -5.43 19.48 C-4.49 20.98, -2.52 21.79, -0.9 21.73 C0.72 21.67, 3.19 20.58, 4.29 19.12 C5.39 17.65, 6.39 16, 5.71 12.95 C5.03 9.89, 1.23 2.99, 0.2 0.8" stroke="#1e1e1e" stroke-width="2" fill="none"></path></g></g><mask></mask></svg>