<svg xmlns="http://www.w3.org/2000/svg" width="200" height="200" viewBox="0 0 200 200">
  <rect width="200" height="200" fill="#fdf9f1" />
  <g stroke="#f2d9c7" stroke-width="1.2" stroke-linecap="round" opacity="0.35">
    <path d="M10 32c18 6 46 6 64 0s46-6 64 0 46 6 64 0" />
    <path d="M6 94c22 8 54 9 76 1s54-8 76 0 54 7 76-1" />
    <path d="M2 158c26 9 62 10 88 1s62-9 88 0 62 8 88-1" />
  </g>
  <g stroke="#d4c7b4" stroke-width="0.8" stroke-linecap="round" opacity="0.25">
    <path d="M0 12c16 4 30 4 46 0" />
    <path d="M154 48c12 5 26 5 38 0" />
    <path d="M48 128c14 5 28 5 42 0" />
    <path d="M118 176c18 6 32 6 50 0" />
  </g>
  <g fill="#f2e8d8" opacity="0.35">
    <circle cx="36" cy="46" r="2.5" />
    <circle cx="118" cy="18" r="1.5" />
    <circle cx="166" cy="82" r="2" />
    <circle cx="64" cy="108" r="1.8" />
    <circle cx="144" cy="154" r="2.3" />
    <circle cx="28" cy="172" r="1.6" />
  </g>
</svg>
