<svg width="24" height="24" viewBox="0 0 24 24" fill="none" xmlns="http://www.w3.org/2000/svg">
  <circle cx="12" cy="12" r="3" stroke="currentColor" stroke-width="2" stroke-linecap="round" stroke-linejoin="round"/>
  <path d="M19.4 15C19.23 15.8 18.78 16.5 18.1 17.1L17.1 18.1C16.5 18.78 15.8 19.23 15 19.4L15 20.4C15 21.28 14.28 22 13.4 22H10.6C9.72 22 9 21.28 9 20.4L9 19.4C8.2 19.23 7.5 18.78 6.9 18.1L5.9 17.1C5.22 16.5 4.77 15.8 4.6 15L3.6 15C2.72 15 2 14.28 2 13.4V10.6C2 9.72 2.72 9 3.6 9L4.6 9C4.77 8.2 5.22 7.5 5.9 6.9L6.9 5.9C7.5 5.22 8.2 4.77 9 4.6L9 3.6C9 2.72 9.72 2 10.6 2H13.4C14.28 2 15 2.72 15 3.6L15 4.6C15.8 4.77 16.5 5.22 17.1 5.9L18.1 6.9C18.78 7.5 19.23 8.2 19.4 9L20.4 9C21.28 9 22 9.72 22 10.6V13.4C22 14.28 21.28 15 20.4 15L19.4 15Z" stroke="currentColor" stroke-width="2" stroke-linecap="round" stroke-linejoin="round"/>
</svg>