<svg width="512" height="512" viewBox="0 0 100 100" xmlns="http://www.w3.org/2000/svg" font-family="cursive" stroke="black" stroke-width="1" fill="none">
  <rect x="10" y="10" width="80" height="80" rx="5" ry="5" fill="#f0f0f0" />
  <line x1="10" y1="30" x2="90" y2="30" />
  <line x1="30" y1="10" x2="30" y2="30" />
  <line x1="50" y1="10" x2="50" y2="30" />
  <line x1="70" y1="10" x2="70" y2="30" />
  <rect x="20" y="40" width="15" height="10" fill="#d0d0d0" />
  <rect x="42.5" y="40" width="15" height="10" />
  <rect x="65" y="40" width="15" height="10" />
  <rect x="20" y="55" width="15" height="10" />
  <rect x="42.5" y="55" width="15" height="10" />
  <rect x="65" y="55" width="15" height="10" />
  <rect x="20" y="70" width="15" height="10" />
  <rect x="42.5" y="70" width="15" height="10" />
  <rect x="65" y="70" width="15" height="10" />
</svg>